# MagicaVoxel @ Ephtracy

# group
o 

# material
mtllib Attack.mtl
usemtl palette

# normals
vn -1 0 0
vn 1 0 0
vn 0 0 1
vn 0 0 -1
vn 0 -1 0
vn 0 1 0

# texcoords
vt 0.0410156 0.5
vt 0.373047 0.5
vt 0.841797 0.5
vt 0.853516 0.5

# verts
v -0.5 0.5 0.2
v -0.5 0.5 0.1
v -0.5 1 0.2
v -0.5 1 0.1
v -0.4 0.4 0.2
v -0.4 0.4 0.1
v -0.4 0.5 0.3
v -0.4 0.5 0.2
v -0.4 0.5 0.1
v -0.4 0.5 0
v -0.4 0.7 0.4
v -0.4 0.7 0.3
v -0.4 0.7 0
v -0.4 0.7 -0.1
v -0.4 0.8 0.4
v -0.4 0.8 0.3
v -0.4 0.8 0
v -0.4 0.8 -0.1
v -0.4 1 0.3
v -0.4 1 0.2
v -0.4 1 0.1
v -0.4 1 0
v -0.4 1.1 0.2
v -0.4 1.1 0.1
v -0.3 0.3 0.2
v -0.3 0.3 0.1
v -0.3 0.4 0.3
v -0.3 0.4 0.2
v -0.3 0.4 0.1
v -0.3 0.4 0
v -0.3 0.5 0.3
v -0.3 0.5 0.2
v -0.3 0.5 0.1
v -0.3 0.5 0
v -0.3 0.6 0.4
v -0.3 0.6 0.3
v -0.3 0.6 0
v -0.3 0.6 -0.1
v -0.3 0.7 0.4
v -0.3 0.7 0.3
v -0.3 0.7 0
v -0.3 0.7 -0.1
v -0.3 0.8 0.4
v -0.3 0.8 0.3
v -0.3 0.8 0
v -0.3 0.8 -0.1
v -0.3 0.9 0.4
v -0.3 0.9 0.3
v -0.3 0.9 0
v -0.3 0.9 -0.1
v -0.3 1 0.3
v -0.3 1 0.2
v -0.3 1 0.1
v -0.3 1 0
v -0.3 1.1 0.3
v -0.3 1.1 0.2
v -0.3 1.1 0.1
v -0.3 1.1 0
v -0.3 1.2 0.2
v -0.3 1.2 0.1
v -0.2 0.5 0.4
v -0.2 0.5 0.3
v -0.2 0.5 0
v -0.2 0.5 -0.1
v -0.2 0.6 0.4
v -0.2 0.6 0.3
v -0.2 0.6 0
v -0.2 0.6 -0.1
v -0.2 0.9 0.4
v -0.2 0.9 0.3
v -0.2 0.9 0
v -0.2 0.9 -0.1
v -0.2 1 0.4
v -0.2 1 0.3
v -0.2 1 0
v -0.2 1 -0.1
v -0.2 1.3 0.2
v -0.2 1.3 0.1
v -0.2 1.4 0.2
v -0.2 1.4 0.1
v -0.1 0.4 0.4
v -0.1 0.4 0.3
v -0.1 0.4 0
v -0.1 0.4 -0.1
v -0.1 0.5 0.4
v -0.1 0.5 0.3
v -0.1 0.5 0
v -0.1 0.5 -0.1
v -0.1 0.7 0.4
v -0.1 0.7 0.3
v -0.1 0.7 0
v -0.1 0.7 -0.1
v -0.1 0.8 0.4
v -0.1 0.8 0.3
v -0.1 0.8 0
v -0.1 0.8 -0.1
v -0.1 1 0.4
v -0.1 1 0.3
v -0.1 1 0
v -0.1 1 -0.1
v -0.1 1.1 0.4
v -0.1 1.1 0.3
v -0.1 1.1 0
v -0.1 1.1 -0.1
v -0.1 1.2 0.2
v -0.1 1.2 0.1
v -0.1 1.3 0.2
v -0.1 1.3 0.1
v -0.1 1.4 0.2
v -0.1 1.4 0.1
v -0.1 1.5 0.2
v -0.1 1.5 0.1
v 0 0.5 0.4
v 0 0.5 0.3
v 0 0.5 0
v 0 0.5 -0.1
v 0 0.6 0.3
v 0 0.6 0
v 0 0.7 0.4
v 0 0.7 0.3
v 0 0.7 0
v 0 0.7 -0.1
v 0 0.8 0.4
v 0 0.8 0.3
v 0 0.8 0
v 0 0.8 -0.1
v 0 0.9 0.3
v 0 0.9 0
v 0 1 0.4
v 0 1 0.3
v 0 1 0
v 0 1 -0.1
v 0 1.3 0.2
v 0 1.3 0.1
v 0 1.4 0.2
v 0 1.4 0.1
v 0.2 0.7 0.4
v 0.2 0.7 0.3
v 0.2 0.7 0
v 0.2 0.7 -0.1
v 0.2 0.8 0.4
v 0.2 0.8 0.3
v 0.2 0.8 0
v 0.2 0.8 -0.1
v -0.3 0.7 0.4
v -0.3 0.7 0.3
v -0.3 0.7 0
v -0.3 0.7 -0.1
v -0.3 0.8 0.4
v -0.3 0.8 0.3
v -0.3 0.8 0
v -0.3 0.8 -0.1
v -0.1 0.5 0.4
v -0.1 0.5 0.3
v -0.1 0.5 0
v -0.1 0.5 -0.1
v -0.1 0.6 0.3
v -0.1 0.6 0
v -0.1 0.7 0.4
v -0.1 0.7 0.3
v -0.1 0.7 0
v -0.1 0.7 -0.1
v -0.1 0.8 0.4
v -0.1 0.8 0.3
v -0.1 0.8 0
v -0.1 0.8 -0.1
v -0.1 0.9 0.3
v -0.1 0.9 0
v -0.1 1 0.4
v -0.1 1 0.3
v -0.1 1 0
v -0.1 1 -0.1
v -0.1 1.3 0.2
v -0.1 1.3 0.1
v -0.1 1.4 0.2
v -0.1 1.4 0.1
v 0 0.4 0.4
v 0 0.4 0.3
v 0 0.4 0
v 0 0.4 -0.1
v 0 0.5 0.4
v 0 0.5 0.3
v 0 0.5 0
v 0 0.5 -0.1
v 0 0.7 0.4
v 0 0.7 0.3
v 0 0.7 0
v 0 0.7 -0.1
v 0 0.8 0.4
v 0 0.8 0.3
v 0 0.8 0
v 0 0.8 -0.1
v 0 1 0.4
v 0 1 0.3
v 0 1 0
v 0 1 -0.1
v 0 1.1 0.4
v 0 1.1 0.3
v 0 1.1 0
v 0 1.1 -0.1
v 0 1.2 0.2
v 0 1.2 0.1
v 0 1.3 0.2
v 0 1.3 0.1
v 0 1.4 0.2
v 0 1.4 0.1
v 0 1.5 0.2
v 0 1.5 0.1
v 0.1 0.5 0.4
v 0.1 0.5 0.3
v 0.1 0.5 0
v 0.1 0.5 -0.1
v 0.1 0.6 0.4
v 0.1 0.6 0.3
v 0.1 0.6 0
v 0.1 0.6 -0.1
v 0.1 0.9 0.4
v 0.1 0.9 0.3
v 0.1 0.9 0
v 0.1 0.9 -0.1
v 0.1 1 0.4
v 0.1 1 0.3
v 0.1 1 0
v 0.1 1 -0.1
v 0.1 1.3 0.2
v 0.1 1.3 0.1
v 0.1 1.4 0.2
v 0.1 1.4 0.1
v 0.2 0.3 0.2
v 0.2 0.3 0.1
v 0.2 0.4 0.3
v 0.2 0.4 0.2
v 0.2 0.4 0.1
v 0.2 0.4 0
v 0.2 0.5 0.3
v 0.2 0.5 0.2
v 0.2 0.5 0.1
v 0.2 0.5 0
v 0.2 0.6 0.4
v 0.2 0.6 0.3
v 0.2 0.6 0
v 0.2 0.6 -0.1
v 0.2 0.7 0.4
v 0.2 0.7 0.3
v 0.2 0.7 0
v 0.2 0.7 -0.1
v 0.2 0.8 0.4
v 0.2 0.8 0.3
v 0.2 0.8 0
v 0.2 0.8 -0.1
v 0.2 0.9 0.4
v 0.2 0.9 0.3
v 0.2 0.9 0
v 0.2 0.9 -0.1
v 0.2 1 0.3
v 0.2 1 0.2
v 0.2 1 0.1
v 0.2 1 0
v 0.2 1.1 0.3
v 0.2 1.1 0.2
v 0.2 1.1 0.1
v 0.2 1.1 0
v 0.2 1.2 0.2
v 0.2 1.2 0.1
v 0.3 0.4 0.2
v 0.3 0.4 0.1
v 0.3 0.5 0.3
v 0.3 0.5 0.2
v 0.3 0.5 0.1
v 0.3 0.5 0
v 0.3 0.7 0.4
v 0.3 0.7 0.3
v 0.3 0.7 0
v 0.3 0.7 -0.1
v 0.3 0.8 0.4
v 0.3 0.8 0.3
v 0.3 0.8 0
v 0.3 0.8 -0.1
v 0.3 1 0.3
v 0.3 1 0.2
v 0.3 1 0.1
v 0.3 1 0
v 0.3 1.1 0.2
v 0.3 1.1 0.1
v 0.4 0.5 0.2
v 0.4 0.5 0.1
v 0.4 1 0.2
v 0.4 1 0.1
v -0.4 0.7 0.4
v -0.4 0.8 0.4
v -0.3 0.6 0.4
v -0.3 0.7 0.4
v -0.3 0.8 0.4
v -0.3 0.9 0.4
v -0.2 0.5 0.4
v -0.2 0.6 0.4
v -0.2 0.9 0.4
v -0.2 1 0.4
v -0.1 0.4 0.4
v -0.1 0.5 0.4
v -0.1 0.7 0.4
v -0.1 0.8 0.4
v -0.1 1 0.4
v -0.1 1.1 0.4
v 0 0.4 0.4
v 0 0.5 0.4
v 0 0.7 0.4
v 0 0.8 0.4
v 0 1 0.4
v 0 1.1 0.4
v 0.1 0.5 0.4
v 0.1 0.6 0.4
v 0.1 0.9 0.4
v 0.1 1 0.4
v 0.2 0.6 0.4
v 0.2 0.7 0.4
v 0.2 0.8 0.4
v 0.2 0.9 0.4
v 0.3 0.7 0.4
v 0.3 0.8 0.4
v -0.4 0.5 0.3
v -0.4 0.7 0.3
v -0.4 0.8 0.3
v -0.4 1 0.3
v -0.3 0.4 0.3
v -0.3 0.5 0.3
v -0.3 0.6 0.3
v -0.3 0.7 0.3
v -0.3 0.8 0.3
v -0.3 0.9 0.3
v -0.3 1 0.3
v -0.3 1.1 0.3
v -0.2 0.5 0.3
v -0.2 0.6 0.3
v -0.2 0.7 0.3
v -0.2 0.8 0.3
v -0.2 0.9 0.3
v -0.2 1 0.3
v -0.1 0.4 0.3
v -0.1 0.5 0.3
v -0.1 0.6 0.3
v -0.1 0.7 0.3
v -0.1 0.8 0.3
v -0.1 0.9 0.3
v -0.1 1 0.3
v -0.1 1.1 0.3
v 0 0.4 0.3
v 0 0.5 0.3
v 0 0.6 0.3
v 0 0.7 0.3
v 0 0.8 0.3
v 0 0.9 0.3
v 0 1 0.3
v 0 1.1 0.3
v 0.1 0.5 0.3
v 0.1 0.6 0.3
v 0.1 0.7 0.3
v 0.1 0.8 0.3
v 0.1 0.9 0.3
v 0.1 1 0.3
v 0.2 0.4 0.3
v 0.2 0.5 0.3
v 0.2 0.6 0.3
v 0.2 0.7 0.3
v 0.2 0.8 0.3
v 0.2 0.9 0.3
v 0.2 1 0.3
v 0.2 1.1 0.3
v 0.3 0.5 0.3
v 0.3 0.7 0.3
v 0.3 0.8 0.3
v 0.3 1 0.3
v -0.5 0.5 0.2
v -0.5 1 0.2
v -0.4 0.4 0.2
v -0.4 0.5 0.2
v -0.4 1 0.2
v -0.4 1.1 0.2
v -0.3 0.3 0.2
v -0.3 0.4 0.2
v -0.3 0.5 0.2
v -0.3 1 0.2
v -0.3 1.1 0.2
v -0.3 1.2 0.2
v -0.2 1.3 0.2
v -0.2 1.4 0.2
v -0.1 1.2 0.2
v -0.1 1.3 0.2
v -0.1 1.4 0.2
v -0.1 1.5 0.2
v 0 1.2 0.2
v 0 1.3 0.2
v 0 1.4 0.2
v 0 1.5 0.2
v 0.1 1.3 0.2
v 0.1 1.4 0.2
v 0.2 0.3 0.2
v 0.2 0.4 0.2
v 0.2 0.5 0.2
v 0.2 1 0.2
v 0.2 1.1 0.2
v 0.2 1.2 0.2
v 0.3 0.4 0.2
v 0.3 0.5 0.2
v 0.3 1 0.2
v 0.3 1.1 0.2
v 0.4 0.5 0.2
v 0.4 1 0.2
v -0.5 0.5 0.1
v -0.5 1 0.1
v -0.4 0.4 0.1
v -0.4 0.5 0.1
v -0.4 1 0.1
v -0.4 1.1 0.1
v -0.3 0.3 0.1
v -0.3 0.4 0.1
v -0.3 0.5 0.1
v -0.3 1 0.1
v -0.3 1.1 0.1
v -0.3 1.2 0.1
v -0.2 1.3 0.1
v -0.2 1.4 0.1
v -0.1 1.2 0.1
v -0.1 1.3 0.1
v -0.1 1.4 0.1
v -0.1 1.5 0.1
v 0 1.2 0.1
v 0 1.3 0.1
v 0 1.4 0.1
v 0 1.5 0.1
v 0.1 1.3 0.1
v 0.1 1.4 0.1
v 0.2 0.3 0.1
v 0.2 0.4 0.1
v 0.2 0.5 0.1
v 0.2 1 0.1
v 0.2 1.1 0.1
v 0.2 1.2 0.1
v 0.3 0.4 0.1
v 0.3 0.5 0.1
v 0.3 1 0.1
v 0.3 1.1 0.1
v 0.4 0.5 0.1
v 0.4 1 0.1
v -0.4 0.5 0
v -0.4 0.7 0
v -0.4 0.8 0
v -0.4 1 0
v -0.3 0.4 0
v -0.3 0.5 0
v -0.3 0.6 0
v -0.3 0.7 0
v -0.3 0.8 0
v -0.3 0.9 0
v -0.3 1 0
v -0.3 1.1 0
v -0.2 0.5 0
v -0.2 0.6 0
v -0.2 0.7 0
v -0.2 0.8 0
v -0.2 0.9 0
v -0.2 1 0
v -0.1 0.4 0
v -0.1 0.5 0
v -0.1 0.6 0
v -0.1 0.7 0
v -0.1 0.8 0
v -0.1 0.9 0
v -0.1 1 0
v -0.1 1.1 0
v 0 0.4 0
v 0 0.5 0
v 0 0.6 0
v 0 0.7 0
v 0 0.8 0
v 0 0.9 0
v 0 1 0
v 0 1.1 0
v 0.1 0.5 0
v 0.1 0.6 0
v 0.1 0.7 0
v 0.1 0.8 0
v 0.1 0.9 0
v 0.1 1 0
v 0.2 0.4 0
v 0.2 0.5 0
v 0.2 0.6 0
v 0.2 0.7 0
v 0.2 0.8 0
v 0.2 0.9 0
v 0.2 1 0
v 0.2 1.1 0
v 0.3 0.5 0
v 0.3 0.7 0
v 0.3 0.8 0
v 0.3 1 0
v -0.4 0.7 -0.1
v -0.4 0.8 -0.1
v -0.3 0.6 -0.1
v -0.3 0.7 -0.1
v -0.3 0.8 -0.1
v -0.3 0.9 -0.1
v -0.2 0.5 -0.1
v -0.2 0.6 -0.1
v -0.2 0.9 -0.1
v -0.2 1 -0.1
v -0.1 0.4 -0.1
v -0.1 0.5 -0.1
v -0.1 0.7 -0.1
v -0.1 0.8 -0.1
v -0.1 1 -0.1
v -0.1 1.1 -0.1
v 0 0.4 -0.1
v 0 0.5 -0.1
v 0 0.7 -0.1
v 0 0.8 -0.1
v 0 1 -0.1
v 0 1.1 -0.1
v 0.1 0.5 -0.1
v 0.1 0.6 -0.1
v 0.1 0.9 -0.1
v 0.1 1 -0.1
v 0.2 0.6 -0.1
v 0.2 0.7 -0.1
v 0.2 0.8 -0.1
v 0.2 0.9 -0.1
v 0.3 0.7 -0.1
v 0.3 0.8 -0.1
v -0.3 0.3 0.2
v 0.2 0.3 0.2
v -0.3 0.3 0.1
v 0.2 0.3 0.1
v -0.1 0.4 0.4
v 0 0.4 0.4
v -0.3 0.4 0.3
v -0.1 0.4 0.3
v 0 0.4 0.3
v 0.2 0.4 0.3
v -0.4 0.4 0.2
v -0.3 0.4 0.2
v 0.2 0.4 0.2
v 0.3 0.4 0.2
v -0.4 0.4 0.1
v -0.3 0.4 0.1
v 0.2 0.4 0.1
v 0.3 0.4 0.1
v -0.3 0.4 0
v -0.1 0.4 0
v 0 0.4 0
v 0.2 0.4 0
v -0.1 0.4 -0.1
v 0 0.4 -0.1
v -0.2 0.5 0.4
v -0.1 0.5 0.4
v 0 0.5 0.4
v 0.1 0.5 0.4
v -0.4 0.5 0.3
v -0.3 0.5 0.3
v -0.2 0.5 0.3
v -0.1 0.5 0.3
v 0 0.5 0.3
v 0.1 0.5 0.3
v 0.2 0.5 0.3
v 0.3 0.5 0.3
v -0.5 0.5 0.2
v -0.4 0.5 0.2
v -0.3 0.5 0.2
v 0.2 0.5 0.2
v 0.3 0.5 0.2
v 0.4 0.5 0.2
v -0.5 0.5 0.1
v -0.4 0.5 0.1
v -0.3 0.5 0.1
v 0.2 0.5 0.1
v 0.3 0.5 0.1
v 0.4 0.5 0.1
v -0.4 0.5 0
v -0.3 0.5 0
v -0.2 0.5 0
v -0.1 0.5 0
v 0 0.5 0
v 0.1 0.5 0
v 0.2 0.5 0
v 0.3 0.5 0
v -0.2 0.5 -0.1
v -0.1 0.5 -0.1
v 0 0.5 -0.1
v 0.1 0.5 -0.1
v -0.3 0.6 0.4
v -0.2 0.6 0.4
v 0.1 0.6 0.4
v 0.2 0.6 0.4
v -0.3 0.6 0.3
v -0.2 0.6 0.3
v 0.1 0.6 0.3
v 0.2 0.6 0.3
v -0.3 0.6 0
v -0.2 0.6 0
v 0.1 0.6 0
v 0.2 0.6 0
v -0.3 0.6 -0.1
v -0.2 0.6 -0.1
v 0.1 0.6 -0.1
v 0.2 0.6 -0.1
v -0.4 0.7 0.4
v -0.3 0.7 0.4
v -0.1 0.7 0.4
v 0 0.7 0.4
v 0.2 0.7 0.4
v 0.3 0.7 0.4
v -0.4 0.7 0.3
v -0.3 0.7 0.3
v -0.1 0.7 0.3
v 0 0.7 0.3
v 0.2 0.7 0.3
v 0.3 0.7 0.3
v -0.4 0.7 0
v -0.3 0.7 0
v -0.1 0.7 0
v 0 0.7 0
v 0.2 0.7 0
v 0.3 0.7 0
v -0.4 0.7 -0.1
v -0.3 0.7 -0.1
v -0.1 0.7 -0.1
v 0 0.7 -0.1
v 0.2 0.7 -0.1
v 0.3 0.7 -0.1
v -0.3 0.8 0.4
v -0.1 0.8 0.4
v 0 0.8 0.4
v 0.2 0.8 0.4
v -0.3 0.8 0.3
v -0.2 0.8 0.3
v -0.1 0.8 0.3
v 0 0.8 0.3
v 0.1 0.8 0.3
v 0.2 0.8 0.3
v -0.3 0.8 0
v -0.2 0.8 0
v -0.1 0.8 0
v 0 0.8 0
v 0.1 0.8 0
v 0.2 0.8 0
v -0.3 0.8 -0.1
v -0.1 0.8 -0.1
v 0 0.8 -0.1
v 0.2 0.8 -0.1
v -0.1 1 0.4
v 0 1 0.4
v -0.1 1 0.3
v 0 1 0.3
v -0.1 1 0
v 0 1 0
v -0.1 1 -0.1
v 0 1 -0.1
v -0.2 1.3 0.2
v -0.1 1.3 0.2
v 0 1.3 0.2
v 0.1 1.3 0.2
v -0.2 1.3 0.1
v -0.1 1.3 0.1
v 0 1.3 0.1
v 0.1 1.3 0.1
v -0.1 1.4 0.2
v 0 1.4 0.2
v -0.1 1.4 0.1
v 0 1.4 0.1
v -0.1 0.5 0.4
v 0 0.5 0.4
v -0.1 0.5 0.3
v 0 0.5 0.3
v -0.1 0.5 0
v 0 0.5 0
v -0.1 0.5 -0.1
v 0 0.5 -0.1
v -0.3 0.7 0.4
v -0.1 0.7 0.4
v 0 0.7 0.4
v 0.2 0.7 0.4
v -0.3 0.7 0.3
v -0.2 0.7 0.3
v -0.1 0.7 0.3
v 0 0.7 0.3
v 0.1 0.7 0.3
v 0.2 0.7 0.3
v -0.3 0.7 0
v -0.2 0.7 0
v -0.1 0.7 0
v 0 0.7 0
v 0.1 0.7 0
v 0.2 0.7 0
v -0.3 0.7 -0.1
v -0.1 0.7 -0.1
v 0 0.7 -0.1
v 0.2 0.7 -0.1
v -0.4 0.8 0.4
v -0.3 0.8 0.4
v -0.1 0.8 0.4
v 0 0.8 0.4
v 0.2 0.8 0.4
v 0.3 0.8 0.4
v -0.4 0.8 0.3
v -0.3 0.8 0.3
v -0.1 0.8 0.3
v 0 0.8 0.3
v 0.2 0.8 0.3
v 0.3 0.8 0.3
v -0.4 0.8 0
v -0.3 0.8 0
v -0.1 0.8 0
v 0 0.8 0
v 0.2 0.8 0
v 0.3 0.8 0
v -0.4 0.8 -0.1
v -0.3 0.8 -0.1
v -0.1 0.8 -0.1
v 0 0.8 -0.1
v 0.2 0.8 -0.1
v 0.3 0.8 -0.1
v -0.3 0.9 0.4
v -0.2 0.9 0.4
v 0.1 0.9 0.4
v 0.2 0.9 0.4
v -0.3 0.9 0.3
v -0.2 0.9 0.3
v 0.1 0.9 0.3
v 0.2 0.9 0.3
v -0.3 0.9 0
v -0.2 0.9 0
v 0.1 0.9 0
v 0.2 0.9 0
v -0.3 0.9 -0.1
v -0.2 0.9 -0.1
v 0.1 0.9 -0.1
v 0.2 0.9 -0.1
v -0.2 1 0.4
v -0.1 1 0.4
v 0 1 0.4
v 0.1 1 0.4
v -0.4 1 0.3
v -0.3 1 0.3
v -0.2 1 0.3
v -0.1 1 0.3
v 0 1 0.3
v 0.1 1 0.3
v 0.2 1 0.3
v 0.3 1 0.3
v -0.5 1 0.2
v -0.4 1 0.2
v -0.3 1 0.2
v 0.2 1 0.2
v 0.3 1 0.2
v 0.4 1 0.2
v -0.5 1 0.1
v -0.4 1 0.1
v -0.3 1 0.1
v 0.2 1 0.1
v 0.3 1 0.1
v 0.4 1 0.1
v -0.4 1 0
v -0.3 1 0
v -0.2 1 0
v -0.1 1 0
v 0 1 0
v 0.1 1 0
v 0.2 1 0
v 0.3 1 0
v -0.2 1 -0.1
v -0.1 1 -0.1
v 0 1 -0.1
v 0.1 1 -0.1
v -0.1 1.1 0.4
v 0 1.1 0.4
v -0.3 1.1 0.3
v -0.1 1.1 0.3
v 0 1.1 0.3
v 0.2 1.1 0.3
v -0.4 1.1 0.2
v -0.3 1.1 0.2
v 0.2 1.1 0.2
v 0.3 1.1 0.2
v -0.4 1.1 0.1
v -0.3 1.1 0.1
v 0.2 1.1 0.1
v 0.3 1.1 0.1
v -0.3 1.1 0
v -0.1 1.1 0
v 0 1.1 0
v 0.2 1.1 0
v -0.1 1.1 -0.1
v 0 1.1 -0.1
v -0.3 1.2 0.2
v -0.1 1.2 0.2
v 0 1.2 0.2
v 0.2 1.2 0.2
v -0.3 1.2 0.1
v -0.1 1.2 0.1
v 0 1.2 0.1
v 0.2 1.2 0.1
v -0.1 1.3 0.2
v 0 1.3 0.2
v -0.1 1.3 0.1
v 0 1.3 0.1
v -0.2 1.4 0.2
v -0.1 1.4 0.2
v 0 1.4 0.2
v 0.1 1.4 0.2
v -0.2 1.4 0.1
v -0.1 1.4 0.1
v 0 1.4 0.1
v 0.1 1.4 0.1
v -0.1 1.5 0.2
v 0 1.5 0.2
v -0.1 1.5 0.1
v 0 1.5 0.1

# faces
f 3/1/1 2/1/1 1/1/1
f 4/1/1 2/1/1 3/1/1
f 8/1/1 6/1/1 5/1/1
f 9/1/1 6/1/1 8/1/1
f 12/2/1 8/2/1 7/2/1
f 13/2/1 10/2/1 9/2/1
f 15/1/1 12/1/1 11/1/1
f 16/2/1 8/2/1 12/2/1
f 16/1/1 12/1/1 15/1/1
f 17/1/1 14/1/1 13/1/1
f 17/2/1 13/2/1 9/2/1
f 18/1/1 14/1/1 17/1/1
f 19/2/1 8/2/1 16/2/1
f 20/2/1 8/2/1 19/2/1
f 21/2/1 17/2/1 9/2/1
f 22/2/1 17/2/1 21/2/1
f 23/1/1 21/1/1 20/1/1
f 24/1/1 21/1/1 23/1/1
f 28/1/1 26/1/1 25/1/1
f 29/1/1 26/1/1 28/1/1
f 31/2/1 28/2/1 27/2/1
f 32/2/1 28/2/1 31/2/1
f 33/2/1 30/2/1 29/2/1
f 34/2/1 30/2/1 33/2/1
f 39/1/1 36/1/1 35/1/1
f 40/1/1 36/1/1 39/1/1
f 41/1/1 38/1/1 37/1/1
f 42/1/1 38/1/1 41/1/1
f 47/1/1 44/1/1 43/1/1
f 48/1/1 44/1/1 47/1/1
f 49/1/1 46/1/1 45/1/1
f 50/1/1 46/1/1 49/1/1
f 55/2/1 52/2/1 51/2/1
f 56/2/1 52/2/1 55/2/1
f 57/2/1 54/2/1 53/2/1
f 58/2/1 54/2/1 57/2/1
f 59/1/1 57/1/1 56/1/1
f 60/1/1 57/1/1 59/1/1
f 65/1/1 62/1/1 61/1/1
f 66/1/1 62/1/1 65/1/1
f 67/1/1 64/1/1 63/1/1
f 68/1/1 64/1/1 67/1/1
f 73/1/1 70/1/1 69/1/1
f 74/1/1 70/1/1 73/1/1
f 75/1/1 72/1/1 71/1/1
f 76/1/1 72/1/1 75/1/1
f 79/1/1 78/1/1 77/1/1
f 80/1/1 78/1/1 79/1/1
f 85/1/1 82/1/1 81/1/1
f 86/1/1 82/1/1 85/1/1
f 87/1/1 84/1/1 83/1/1
f 88/1/1 84/1/1 87/1/1
f 93/1/1 90/1/1 89/1/1
f 94/1/1 90/1/1 93/1/1
f 95/1/1 92/1/1 91/1/1
f 96/1/1 92/1/1 95/1/1
f 101/1/1 98/1/1 97/1/1
f 102/1/1 98/1/1 101/1/1
f 103/1/1 100/1/1 99/1/1
f 104/1/1 100/1/1 103/1/1
f 107/1/1 106/1/1 105/1/1
f 108/1/1 106/1/1 107/1/1
f 111/1/1 110/1/1 109/1/1
f 112/1/1 110/1/1 111/1/1
f 117/1/1 114/1/1 113/1/1
f 118/1/1 116/1/1 115/1/1
f 119/1/1 117/1/1 113/1/1
f 120/1/1 117/1/1 119/1/1
f 121/1/1 116/1/1 118/1/1
f 122/1/1 116/1/1 121/1/1
f 127/1/1 124/1/1 123/1/1
f 128/1/1 126/1/1 125/1/1
f 129/1/1 127/1/1 123/1/1
f 130/1/1 127/1/1 129/1/1
f 131/1/1 126/1/1 128/1/1
f 132/1/1 126/1/1 131/1/1
f 135/1/1 134/1/1 133/1/1
f 136/1/1 134/1/1 135/1/1
f 141/1/1 138/1/1 137/1/1
f 142/1/1 138/1/1 141/1/1
f 143/1/1 140/1/1 139/1/1
f 144/1/1 140/1/1 143/1/1
f 145/1/2 146/1/2 149/1/2
f 149/1/2 146/1/2 150/1/2
f 147/1/2 148/1/2 151/1/2
f 151/1/2 148/1/2 152/1/2
f 153/1/2 154/1/2 157/1/2
f 155/1/2 156/1/2 158/1/2
f 153/1/2 157/1/2 159/1/2
f 159/1/2 157/1/2 160/1/2
f 158/1/2 156/1/2 161/1/2
f 161/1/2 156/1/2 162/1/2
f 163/1/2 164/1/2 167/1/2
f 165/1/2 166/1/2 168/1/2
f 163/1/2 167/1/2 169/1/2
f 169/1/2 167/1/2 170/1/2
f 168/1/2 166/1/2 171/1/2
f 171/1/2 166/1/2 172/1/2
f 173/1/2 174/1/2 175/1/2
f 175/1/2 174/1/2 176/1/2
f 177/1/2 178/1/2 181/1/2
f 181/1/2 178/1/2 182/1/2
f 179/1/2 180/1/2 183/1/2
f 183/1/2 180/1/2 184/1/2
f 185/1/2 186/1/2 189/1/2
f 189/1/2 186/1/2 190/1/2
f 187/1/2 188/1/2 191/1/2
f 191/1/2 188/1/2 192/1/2
f 193/1/2 194/1/2 197/1/2
f 197/1/2 194/1/2 198/1/2
f 195/1/2 196/1/2 199/1/2
f 199/1/2 196/1/2 200/1/2
f 201/1/2 202/1/2 203/1/2
f 203/1/2 202/1/2 204/1/2
f 205/1/2 206/1/2 207/1/2
f 207/1/2 206/1/2 208/1/2
f 209/1/2 210/1/2 213/1/2
f 213/1/2 210/1/2 214/1/2
f 211/1/2 212/1/2 215/1/2
f 215/1/2 212/1/2 216/1/2
f 217/1/2 218/1/2 221/1/2
f 221/1/2 218/1/2 222/1/2
f 219/1/2 220/1/2 223/1/2
f 223/1/2 220/1/2 224/1/2
f 225/1/2 226/1/2 227/1/2
f 227/1/2 226/1/2 228/1/2
f 229/1/2 230/1/2 232/1/2
f 232/1/2 230/1/2 233/1/2
f 231/2/2 232/2/2 235/2/2
f 235/2/2 232/2/2 236/2/2
f 233/2/2 234/2/2 237/2/2
f 237/2/2 234/2/2 238/2/2
f 239/1/2 240/1/2 243/1/2
f 243/1/2 240/1/2 244/1/2
f 241/1/2 242/1/2 245/1/2
f 245/1/2 242/1/2 246/1/2
f 247/1/2 248/1/2 251/1/2
f 251/1/2 248/1/2 252/1/2
f 249/1/2 250/1/2 253/1/2
f 253/1/2 250/1/2 254/1/2
f 255/2/2 256/2/2 259/2/2
f 259/2/2 256/2/2 260/2/2
f 257/2/2 258/2/2 261/2/2
f 261/2/2 258/2/2 262/2/2
f 260/1/2 261/1/2 263/1/2
f 263/1/2 261/1/2 264/1/2
f 265/1/2 266/1/2 268/1/2
f 268/1/2 266/1/2 269/1/2
f 267/2/2 268/2/2 272/2/2
f 269/2/2 270/2/2 273/2/2
f 271/1/2 272/1/2 275/1/2
f 272/2/2 268/2/2 276/2/2
f 275/1/2 272/1/2 276/1/2
f 273/1/2 274/1/2 277/1/2
f 269/2/2 273/2/2 277/2/2
f 277/1/2 274/1/2 278/1/2
f 276/2/2 268/2/2 279/2/2
f 279/2/2 268/2/2 280/2/2
f 269/2/2 277/2/2 281/2/2
f 281/2/2 277/2/2 282/2/2
f 280/1/2 281/1/2 283/1/2
f 283/1/2 281/1/2 284/1/2
f 285/1/2 286/1/2 287/1/2
f 287/1/2 286/1/2 288/1/2
f 292/1/3 290/1/3 289/1/3
f 293/1/3 290/1/3 292/1/3
f 296/1/3 292/1/3 291/1/3
f 297/1/3 294/1/3 293/1/3
f 300/1/3 296/1/3 295/1/3
f 301/1/3 292/1/3 296/1/3
f 301/1/3 296/1/3 300/1/3
f 302/1/3 298/1/3 297/1/3
f 302/1/3 297/1/3 293/1/3
f 303/1/3 298/1/3 302/1/3
f 305/1/3 300/1/3 299/1/3
f 306/1/3 300/1/3 305/1/3
f 307/1/3 302/1/3 301/1/3
f 308/1/3 302/1/3 307/1/3
f 309/1/3 304/1/3 303/1/3
f 310/1/3 304/1/3 309/1/3
f 311/1/3 307/1/3 306/1/3
f 312/1/3 307/1/3 311/1/3
f 313/1/3 309/1/3 308/1/3
f 314/1/3 309/1/3 313/1/3
f 315/1/3 307/1/3 312/1/3
f 316/1/3 307/1/3 315/1/3
f 317/1/3 313/1/3 308/1/3
f 318/1/3 313/1/3 317/1/3
f 319/1/3 317/1/3 316/1/3
f 320/1/3 317/1/3 319/1/3
f 326/2/3 322/2/3 321/2/3
f 327/2/3 322/2/3 326/2/3
f 328/2/3 322/2/3 327/2/3
f 329/2/3 324/2/3 323/2/3
f 330/2/3 324/2/3 329/2/3
f 331/2/3 324/2/3 330/2/3
f 333/2/3 326/2/3 325/2/3
f 333/2/3 327/2/3 326/2/3
f 334/2/3 327/2/3 333/2/3
f 335/3/3 329/3/3 328/3/3
f 336/3/3 329/3/3 335/3/3
f 337/2/3 332/2/3 331/2/3
f 337/2/3 331/2/3 330/2/3
f 338/2/3 332/2/3 337/2/3
f 339/2/3 333/2/3 325/2/3
f 340/2/3 333/2/3 339/2/3
f 342/4/3 336/4/3 335/4/3
f 343/4/3 336/4/3 342/4/3
f 345/2/3 332/2/3 338/2/3
f 346/2/3 332/2/3 345/2/3
f 348/4/3 341/4/3 340/4/3
f 349/3/3 342/3/3 341/3/3
f 349/4/3 341/4/3 348/4/3
f 350/3/3 342/3/3 349/3/3
f 351/4/3 344/4/3 343/4/3
f 352/3/3 345/3/3 344/3/3
f 352/4/3 344/4/3 351/4/3
f 353/3/3 345/3/3 352/3/3
f 355/2/3 348/2/3 347/2/3
f 357/3/3 351/3/3 350/3/3
f 358/3/3 351/3/3 357/3/3
f 360/2/3 354/2/3 353/2/3
f 361/2/3 356/2/3 355/2/3
f 361/2/3 355/2/3 347/2/3
f 362/2/3 356/2/3 361/2/3
f 363/2/3 356/2/3 362/2/3
f 364/4/3 358/4/3 357/4/3
f 365/4/3 358/4/3 364/4/3
f 366/2/3 360/2/3 359/2/3
f 367/2/3 354/2/3 360/2/3
f 367/2/3 360/2/3 366/2/3
f 368/2/3 354/2/3 367/2/3
f 369/2/3 363/2/3 362/2/3
f 369/2/3 364/2/3 363/2/3
f 370/2/3 364/2/3 369/2/3
f 371/2/3 367/2/3 366/2/3
f 371/2/3 366/2/3 365/2/3
f 372/2/3 367/2/3 371/2/3
f 376/1/3 374/1/3 373/1/3
f 377/1/3 374/1/3 376/1/3
f 380/1/3 376/1/3 375/1/3
f 381/1/3 376/1/3 380/1/3
f 382/1/3 378/1/3 377/1/3
f 383/1/3 378/1/3 382/1/3
f 387/1/3 384/1/3 383/1/3
f 388/1/3 386/1/3 385/1/3
f 389/1/3 386/1/3 388/1/3
f 391/1/3 387/1/3 383/1/3
f 391/1/3 388/1/3 387/1/3
f 392/1/3 388/1/3 391/1/3
f 393/1/3 390/1/3 389/1/3
f 394/1/3 390/1/3 393/1/3
f 395/1/3 393/1/3 392/1/3
f 396/1/3 393/1/3 395/1/3
f 397/1/3 380/1/3 379/1/3
f 398/1/3 380/1/3 397/1/3
f 401/1/3 391/1/3 383/1/3
f 402/1/3 391/1/3 401/1/3
f 403/1/3 399/1/3 398/1/3
f 404/1/3 399/1/3 403/1/3
f 405/1/3 401/1/3 400/1/3
f 406/1/3 401/1/3 405/1/3
f 407/1/3 405/1/3 404/1/3
f 408/1/3 405/1/3 407/1/3
f 409/1/4 410/1/4 412/1/4
f 412/1/4 410/1/4 413/1/4
f 411/1/4 412/1/4 416/1/4
f 416/1/4 412/1/4 417/1/4
f 413/1/4 414/1/4 418/1/4
f 418/1/4 414/1/4 419/1/4
f 419/1/4 420/1/4 423/1/4
f 421/1/4 422/1/4 424/1/4
f 424/1/4 422/1/4 425/1/4
f 419/1/4 423/1/4 427/1/4
f 423/1/4 424/1/4 427/1/4
f 427/1/4 424/1/4 428/1/4
f 425/1/4 426/1/4 429/1/4
f 429/1/4 426/1/4 430/1/4
f 428/1/4 429/1/4 431/1/4
f 431/1/4 429/1/4 432/1/4
f 415/1/4 416/1/4 433/1/4
f 433/1/4 416/1/4 434/1/4
f 419/1/4 427/1/4 437/1/4
f 437/1/4 427/1/4 438/1/4
f 434/1/4 435/1/4 439/1/4
f 439/1/4 435/1/4 440/1/4
f 436/1/4 437/1/4 441/1/4
f 441/1/4 437/1/4 442/1/4
f 440/1/4 441/1/4 443/1/4
f 443/1/4 441/1/4 444/1/4
f 445/2/4 446/2/4 450/2/4
f 450/2/4 446/2/4 451/2/4
f 451/2/4 446/2/4 452/2/4
f 447/2/4 448/2/4 453/2/4
f 453/2/4 448/2/4 454/2/4
f 454/2/4 448/2/4 455/2/4
f 449/2/4 450/2/4 457/2/4
f 450/2/4 451/2/4 457/2/4
f 457/2/4 451/2/4 458/2/4
f 452/3/4 453/3/4 459/3/4
f 459/3/4 453/3/4 460/3/4
f 455/2/4 456/2/4 461/2/4
f 454/2/4 455/2/4 461/2/4
f 461/2/4 456/2/4 462/2/4
f 449/2/4 457/2/4 463/2/4
f 463/2/4 457/2/4 464/2/4
f 459/4/4 460/4/4 466/4/4
f 466/4/4 460/4/4 467/4/4
f 462/2/4 456/2/4 469/2/4
f 469/2/4 456/2/4 470/2/4
f 464/4/4 465/4/4 472/4/4
f 465/3/4 466/3/4 473/3/4
f 472/4/4 465/4/4 473/4/4
f 473/3/4 466/3/4 474/3/4
f 467/4/4 468/4/4 475/4/4
f 468/3/4 469/3/4 476/3/4
f 475/4/4 468/4/4 476/4/4
f 476/3/4 469/3/4 477/3/4
f 471/2/4 472/2/4 479/2/4
f 474/3/4 475/3/4 481/3/4
f 481/3/4 475/3/4 482/3/4
f 477/2/4 478/2/4 484/2/4
f 479/2/4 480/2/4 485/2/4
f 471/2/4 479/2/4 485/2/4
f 485/2/4 480/2/4 486/2/4
f 486/2/4 480/2/4 487/2/4
f 481/4/4 482/4/4 488/4/4
f 488/4/4 482/4/4 489/4/4
f 483/2/4 484/2/4 490/2/4
f 484/2/4 478/2/4 491/2/4
f 490/2/4 484/2/4 491/2/4
f 491/2/4 478/2/4 492/2/4
f 486/2/4 487/2/4 493/2/4
f 487/2/4 488/2/4 493/2/4
f 493/2/4 488/2/4 494/2/4
f 490/2/4 491/2/4 495/2/4
f 489/2/4 490/2/4 495/2/4
f 495/2/4 491/2/4 496/2/4
f 497/1/4 498/1/4 500/1/4
f 500/1/4 498/1/4 501/1/4
f 499/1/4 500/1/4 504/1/4
f 501/1/4 502/1/4 505/1/4
f 503/1/4 504/1/4 508/1/4
f 504/1/4 500/1/4 509/1/4
f 508/1/4 504/1/4 509/1/4
f 505/1/4 506/1/4 510/1/4
f 501/1/4 505/1/4 510/1/4
f 510/1/4 506/1/4 511/1/4
f 507/1/4 508/1/4 513/1/4
f 513/1/4 508/1/4 514/1/4
f 509/1/4 510/1/4 515/1/4
f 515/1/4 510/1/4 516/1/4
f 511/1/4 512/1/4 517/1/4
f 517/1/4 512/1/4 518/1/4
f 514/1/4 515/1/4 519/1/4
f 519/1/4 515/1/4 520/1/4
f 516/1/4 517/1/4 521/1/4
f 521/1/4 517/1/4 522/1/4
f 520/1/4 515/1/4 523/1/4
f 523/1/4 515/1/4 524/1/4
f 516/1/4 521/1/4 525/1/4
f 525/1/4 521/1/4 526/1/4
f 524/1/4 525/1/4 527/1/4
f 527/1/4 525/1/4 528/1/4
f 531/1/5 530/1/5 529/1/5
f 532/1/5 530/1/5 531/1/5
f 536/1/5 534/1/5 533/1/5
f 537/1/5 534/1/5 536/1/5
f 540/2/5 536/2/5 535/2/5
f 540/2/5 538/2/5 537/2/5
f 540/2/5 537/2/5 536/2/5
f 541/2/5 538/2/5 540/2/5
f 543/1/5 540/1/5 539/1/5
f 544/1/5 540/1/5 543/1/5
f 545/1/5 542/1/5 541/1/5
f 546/1/5 542/1/5 545/1/5
f 547/2/5 545/2/5 544/2/5
f 548/2/5 545/2/5 547/2/5
f 549/2/5 545/2/5 548/2/5
f 550/2/5 545/2/5 549/2/5
f 551/1/5 549/1/5 548/1/5
f 552/1/5 549/1/5 551/1/5
f 559/1/5 554/1/5 553/1/5
f 560/1/5 554/1/5 559/1/5
f 561/1/5 556/1/5 555/1/5
f 562/1/5 556/1/5 561/1/5
f 566/2/5 558/2/5 557/2/5
f 567/2/5 558/2/5 566/2/5
f 568/2/5 564/2/5 563/2/5
f 569/2/5 564/2/5 568/2/5
f 571/1/5 566/1/5 565/1/5
f 572/1/5 566/1/5 571/1/5
f 575/1/5 570/1/5 569/1/5
f 576/1/5 570/1/5 575/1/5
f 577/2/5 573/2/5 572/2/5
f 578/2/5 573/2/5 577/2/5
f 583/2/5 575/2/5 574/2/5
f 584/2/5 575/2/5 583/2/5
f 585/1/5 580/1/5 579/1/5
f 586/1/5 580/1/5 585/1/5
f 587/1/5 582/1/5 581/1/5
f 588/1/5 582/1/5 587/1/5
f 593/1/5 590/1/5 589/1/5
f 594/1/5 590/1/5 593/1/5
f 595/1/5 592/1/5 591/1/5
f 596/1/5 592/1/5 595/1/5
f 601/1/5 598/1/5 597/1/5
f 602/1/5 598/1/5 601/1/5
f 603/1/5 600/1/5 599/1/5
f 604/1/5 600/1/5 603/1/5
f 611/1/5 606/1/5 605/1/5
f 612/1/5 606/1/5 611/1/5
f 613/1/5 608/1/5 607/1/5
f 614/1/5 608/1/5 613/1/5
f 615/1/5 610/1/5 609/1/5
f 616/1/5 610/1/5 615/1/5
f 623/1/5 618/1/5 617/1/5
f 624/1/5 618/1/5 623/1/5
f 625/1/5 620/1/5 619/1/5
f 626/1/5 620/1/5 625/1/5
f 627/1/5 622/1/5 621/1/5
f 628/1/5 622/1/5 627/1/5
f 633/1/5 630/1/5 629/1/5
f 634/1/5 630/1/5 633/1/5
f 635/1/5 630/1/5 634/1/5
f 636/1/5 632/1/5 631/1/5
f 637/1/5 632/1/5 636/1/5
f 638/1/5 632/1/5 637/1/5
f 645/1/5 640/1/5 639/1/5
f 645/1/5 641/1/5 640/1/5
f 646/1/5 641/1/5 645/1/5
f 647/1/5 644/1/5 643/1/5
f 647/1/5 643/1/5 642/1/5
f 648/1/5 644/1/5 647/1/5
f 651/1/5 650/1/5 649/1/5
f 652/1/5 650/1/5 651/1/5
f 655/1/5 654/1/5 653/1/5
f 656/1/5 654/1/5 655/1/5
f 661/1/5 658/1/5 657/1/5
f 662/1/5 658/1/5 661/1/5
f 663/1/5 660/1/5 659/1/5
f 664/1/5 660/1/5 663/1/5
f 667/1/5 666/1/5 665/1/5
f 668/1/5 666/1/5 667/1/5
f 669/1/6 670/1/6 671/1/6
f 671/1/6 670/1/6 672/1/6
f 673/1/6 674/1/6 675/1/6
f 675/1/6 674/1/6 676/1/6
f 677/1/6 678/1/6 681/1/6
f 681/1/6 678/1/6 682/1/6
f 682/1/6 678/1/6 683/1/6
f 679/1/6 680/1/6 684/1/6
f 684/1/6 680/1/6 685/1/6
f 685/1/6 680/1/6 686/1/6
f 687/1/6 688/1/6 693/1/6
f 688/1/6 689/1/6 693/1/6
f 693/1/6 689/1/6 694/1/6
f 691/1/6 692/1/6 695/1/6
f 690/1/6 691/1/6 695/1/6
f 695/1/6 692/1/6 696/1/6
f 697/1/6 698/1/6 703/1/6
f 703/1/6 698/1/6 704/1/6
f 699/1/6 700/1/6 705/1/6
f 705/1/6 700/1/6 706/1/6
f 701/1/6 702/1/6 707/1/6
f 707/1/6 702/1/6 708/1/6
f 709/1/6 710/1/6 715/1/6
f 715/1/6 710/1/6 716/1/6
f 711/1/6 712/1/6 717/1/6
f 717/1/6 712/1/6 718/1/6
f 713/1/6 714/1/6 719/1/6
f 719/1/6 714/1/6 720/1/6
f 721/1/6 722/1/6 725/1/6
f 725/1/6 722/1/6 726/1/6
f 723/1/6 724/1/6 727/1/6
f 727/1/6 724/1/6 728/1/6
f 729/1/6 730/1/6 733/1/6
f 733/1/6 730/1/6 734/1/6
f 731/1/6 732/1/6 735/1/6
f 735/1/6 732/1/6 736/1/6
f 737/1/6 738/1/6 743/1/6
f 743/1/6 738/1/6 744/1/6
f 739/1/6 740/1/6 745/1/6
f 745/1/6 740/1/6 746/1/6
f 741/2/6 742/2/6 750/2/6
f 750/2/6 742/2/6 751/2/6
f 747/2/6 748/2/6 752/2/6
f 752/2/6 748/2/6 753/2/6
f 749/1/6 750/1/6 755/1/6
f 755/1/6 750/1/6 756/1/6
f 753/1/6 754/1/6 759/1/6
f 759/1/6 754/1/6 760/1/6
f 756/2/6 757/2/6 761/2/6
f 761/2/6 757/2/6 762/2/6
f 758/2/6 759/2/6 767/2/6
f 767/2/6 759/2/6 768/2/6
f 763/1/6 764/1/6 769/1/6
f 769/1/6 764/1/6 770/1/6
f 765/1/6 766/1/6 771/1/6
f 771/1/6 766/1/6 772/1/6
f 773/1/6 774/1/6 776/1/6
f 776/1/6 774/1/6 777/1/6
f 775/2/6 776/2/6 780/2/6
f 777/2/6 778/2/6 780/2/6
f 776/2/6 777/2/6 780/2/6
f 780/2/6 778/2/6 781/2/6
f 779/1/6 780/1/6 783/1/6
f 783/1/6 780/1/6 784/1/6
f 781/1/6 782/1/6 785/1/6
f 785/1/6 782/1/6 786/1/6
f 784/2/6 785/2/6 787/2/6
f 787/2/6 785/2/6 788/2/6
f 788/2/6 785/2/6 789/2/6
f 789/2/6 785/2/6 790/2/6
f 788/1/6 789/1/6 791/1/6
f 791/1/6 789/1/6 792/1/6
f 793/1/6 794/1/6 797/1/6
f 797/1/6 794/1/6 798/1/6
f 795/1/6 796/1/6 799/1/6
f 799/1/6 796/1/6 800/1/6
f 801/1/6 802/1/6 803/1/6
f 803/1/6 802/1/6 804/1/6
f 805/1/6 806/1/6 809/1/6
f 809/1/6 806/1/6 810/1/6
f 807/1/6 808/1/6 811/1/6
f 811/1/6 808/1/6 812/1/6
f 813/1/6 814/1/6 815/1/6
f 815/1/6 814/1/6 816/1/6
