# MagicaVoxel @ Ephtracy

# group
o 

# material
mtllib flashlight.mtl
usemtl palette

# normals
vn -1 0 0
vn 1 0 0
vn 0 0 1
vn 0 0 -1
vn 0 -1 0
vn 0 1 0

# texcoords
vt 0.00976562 0.5
vt 0.958984 0.5
vt 0.970703 0.5
vt 0.982422 0.5

# verts
v 0.3 0.6 0.9
v 0.3 0.6 0.5
v 0.3 0.7 0.4
v 0.3 0.7 0.3
v 0.3 1 0.4
v 0.3 1 0.3
v 0.3 1.1 0.9
v 0.3 1.1 0.5
v 0.4 0.5 0.9
v 0.4 0.5 0.5
v 0.4 0.6 0.9
v 0.4 0.6 0.5
v 0.4 0.6 0.4
v 0.4 0.6 0.3
v 0.4 0.7 0.5
v 0.4 0.7 0.4
v 0.4 0.7 0.3
v 0.4 0.7 0.2
v 0.4 0.7 0.1
v 0.4 0.7 0
v 0.4 0.8 0
v 0.4 0.8 -0.7
v 0.4 0.9 0
v 0.4 0.9 -0.7
v 0.4 1 0.5
v 0.4 1 0.4
v 0.4 1 0.3
v 0.4 1 0.2
v 0.4 1 0.1
v 0.4 1 0
v 0.4 1.1 0.9
v 0.4 1.1 0.5
v 0.4 1.1 0.4
v 0.4 1.1 0.3
v 0.4 1.2 0.9
v 0.4 1.2 0.5
v 0.5 0.5 0.4
v 0.5 0.5 0.3
v 0.5 0.6 0.5
v 0.5 0.6 0.4
v 0.5 0.6 0.3
v 0.5 0.6 0.2
v 0.5 0.6 0.1
v 0.5 0.6 0
v 0.5 0.7 0.5
v 0.5 0.7 0.4
v 0.5 0.7 0.3
v 0.5 0.7 0.2
v 0.5 0.7 0.1
v 0.5 0.7 0
v 0.5 0.7 -0.7
v 0.5 0.8 0
v 0.5 0.8 -0.7
v 0.5 0.8 -0.8
v 0.5 0.9 0
v 0.5 0.9 -0.7
v 0.5 0.9 -0.8
v 0.5 1 0.5
v 0.5 1 0.4
v 0.5 1 0.3
v 0.5 1 0.2
v 0.5 1 0.1
v 0.5 1 0
v 0.5 1 -0.7
v 0.5 1.1 0.5
v 0.5 1.1 0.4
v 0.5 1.1 0.3
v 0.5 1.1 0.2
v 0.5 1.1 0.1
v 0.5 1.1 0
v 0.5 1.2 0.4
v 0.5 1.2 0.3
v 0.6 0.6 0
v 0.6 0.6 -0.7
v 0.6 0.7 0
v 0.6 0.7 -0.7
v 0.6 0.7 -0.8
v 0.6 0.8 -0.7
v 0.6 0.8 -0.8
v 0.6 0.9 -0.7
v 0.6 0.9 -0.8
v 0.6 1 0
v 0.6 1 -0.7
v 0.6 1 -0.8
v 0.6 1.1 0
v 0.6 1.1 -0.7
v 0.8 0.6 0.9
v 0.8 0.6 0.8
v 0.8 0.6 0.7
v 0.8 0.6 0.6
v 0.8 0.6 0.5
v 0.8 0.7 0.9
v 0.8 0.7 0.8
v 0.8 0.7 0.7
v 0.8 0.7 0.6
v 0.8 0.7 0.5
v 0.8 1 0.9
v 0.8 1 0.8
v 0.8 1 0.7
v 0.8 1 0.6
v 0.8 1 0.5
v 0.8 1.1 0.9
v 0.8 1.1 0.8
v 0.8 1.1 0.7
v 0.8 1.1 0.6
v 0.8 1.1 0.5
v 0.9 0.7 0.9
v 0.9 0.7 0.8
v 0.9 0.7 0.7
v 0.9 0.7 0.6
v 0.9 0.7 0.5
v 0.9 1 0.9
v 0.9 1 0.8
v 0.9 1 0.7
v 0.9 1 0.6
v 0.9 1 0.5
v 0.4 0.7 0.9
v 0.4 0.7 0.8
v 0.4 0.7 0.7
v 0.4 0.7 0.6
v 0.4 0.7 0.5
v 0.4 1 0.9
v 0.4 1 0.8
v 0.4 1 0.7
v 0.4 1 0.6
v 0.4 1 0.5
v 0.5 0.6 0.9
v 0.5 0.6 0.8
v 0.5 0.6 0.7
v 0.5 0.6 0.6
v 0.5 0.6 0.5
v 0.5 0.7 0.9
v 0.5 0.7 0.8
v 0.5 0.7 0.7
v 0.5 0.7 0.6
v 0.5 0.7 0.5
v 0.5 1 0.9
v 0.5 1 0.8
v 0.5 1 0.7
v 0.5 1 0.6
v 0.5 1 0.5
v 0.5 1.1 0.9
v 0.5 1.1 0.8
v 0.5 1.1 0.7
v 0.5 1.1 0.6
v 0.5 1.1 0.5
v 0.7 0.6 0
v 0.7 0.6 -0.7
v 0.7 0.7 0
v 0.7 0.7 -0.7
v 0.7 0.7 -0.8
v 0.7 0.8 -0.7
v 0.7 0.8 -0.8
v 0.7 0.9 -0.7
v 0.7 0.9 -0.8
v 0.7 1 0
v 0.7 1 -0.7
v 0.7 1 -0.8
v 0.7 1.1 0
v 0.7 1.1 -0.7
v 0.8 0.5 0.4
v 0.8 0.5 0.3
v 0.8 0.6 0.5
v 0.8 0.6 0.4
v 0.8 0.6 0.3
v 0.8 0.6 0.2
v 0.8 0.6 0.1
v 0.8 0.6 0
v 0.8 0.7 0.5
v 0.8 0.7 0.4
v 0.8 0.7 0.3
v 0.8 0.7 0.2
v 0.8 0.7 0.1
v 0.8 0.7 0
v 0.8 0.7 -0.7
v 0.8 0.8 0
v 0.8 0.8 -0.7
v 0.8 0.8 -0.8
v 0.8 0.9 0
v 0.8 0.9 -0.7
v 0.8 0.9 -0.8
v 0.8 1 0.5
v 0.8 1 0.4
v 0.8 1 0.3
v 0.8 1 0.2
v 0.8 1 0.1
v 0.8 1 0
v 0.8 1 -0.7
v 0.8 1.1 0.5
v 0.8 1.1 0.4
v 0.8 1.1 0.3
v 0.8 1.1 0.2
v 0.8 1.1 0.1
v 0.8 1.1 0
v 0.8 1.2 0.4
v 0.8 1.2 0.3
v 0.9 0.5 0.9
v 0.9 0.5 0.5
v 0.9 0.6 0.9
v 0.9 0.6 0.5
v 0.9 0.6 0.4
v 0.9 0.6 0.3
v 0.9 0.7 0.5
v 0.9 0.7 0.4
v 0.9 0.7 0.3
v 0.9 0.7 0.2
v 0.9 0.7 0.1
v 0.9 0.7 0
v 0.9 0.8 0
v 0.9 0.8 -0.7
v 0.9 0.9 0
v 0.9 0.9 -0.7
v 0.9 1 0.5
v 0.9 1 0.4
v 0.9 1 0.3
v 0.9 1 0.2
v 0.9 1 0.1
v 0.9 1 0
v 0.9 1.1 0.9
v 0.9 1.1 0.5
v 0.9 1.1 0.4
v 0.9 1.1 0.3
v 0.9 1.2 0.9
v 0.9 1.2 0.5
v 1 0.6 0.9
v 1 0.6 0.5
v 1 0.7 0.4
v 1 0.7 0.3
v 1 1 0.4
v 1 1 0.3
v 1 1.1 0.9
v 1 1.1 0.5
v 0.3 0.6 0.9
v 0.3 1.1 0.9
v 0.4 0.5 0.9
v 0.4 0.6 0.9
v 0.4 0.7 0.9
v 0.4 1 0.9
v 0.4 1.1 0.9
v 0.4 1.2 0.9
v 0.5 0.6 0.9
v 0.5 0.7 0.9
v 0.5 1 0.9
v 0.5 1.1 0.9
v 0.8 0.6 0.9
v 0.8 0.7 0.9
v 0.8 1 0.9
v 0.8 1.1 0.9
v 0.9 0.5 0.9
v 0.9 0.6 0.9
v 0.9 0.7 0.9
v 0.9 1 0.9
v 0.9 1.1 0.9
v 0.9 1.2 0.9
v 1 0.6 0.9
v 1 1.1 0.9
v 0.4 0.7 0.8
v 0.4 1 0.8
v 0.5 0.6 0.8
v 0.5 0.7 0.8
v 0.5 1 0.8
v 0.5 1.1 0.8
v 0.8 0.6 0.8
v 0.8 0.7 0.8
v 0.8 1 0.8
v 0.8 1.1 0.8
v 0.9 0.7 0.8
v 0.9 1 0.8
v 0.4 0.7 0.5
v 0.4 1 0.5
v 0.5 0.6 0.5
v 0.5 0.7 0.5
v 0.5 1 0.5
v 0.5 1.1 0.5
v 0.8 0.6 0.5
v 0.8 0.7 0.5
v 0.8 1 0.5
v 0.8 1.1 0.5
v 0.9 0.7 0.5
v 0.9 1 0.5
v 0.3 0.7 0.4
v 0.3 1 0.4
v 0.4 0.6 0.4
v 0.4 0.7 0.4
v 0.4 1 0.4
v 0.4 1.1 0.4
v 0.5 0.5 0.4
v 0.5 0.6 0.4
v 0.5 0.7 0.4
v 0.5 1 0.4
v 0.5 1.1 0.4
v 0.5 1.2 0.4
v 0.8 0.5 0.4
v 0.8 0.6 0.4
v 0.8 0.7 0.4
v 0.8 1 0.4
v 0.8 1.1 0.4
v 0.8 1.2 0.4
v 0.9 0.6 0.4
v 0.9 0.7 0.4
v 0.9 1 0.4
v 0.9 1.1 0.4
v 1 0.7 0.4
v 1 1 0.4
v 0.4 0.7 0.1
v 0.4 1 0.1
v 0.5 0.6 0.1
v 0.5 0.7 0.1
v 0.5 1 0.1
v 0.5 1.1 0.1
v 0.8 0.6 0.1
v 0.8 0.7 0.1
v 0.8 1 0.1
v 0.8 1.1 0.1
v 0.9 0.7 0.1
v 0.9 1 0.1
v 0.4 0.7 0.7
v 0.4 1 0.7
v 0.5 0.6 0.7
v 0.5 0.7 0.7
v 0.5 1 0.7
v 0.5 1.1 0.7
v 0.8 0.6 0.7
v 0.8 0.7 0.7
v 0.8 1 0.7
v 0.8 1.1 0.7
v 0.9 0.7 0.7
v 0.9 1 0.7
v 0.3 0.6 0.5
v 0.3 1.1 0.5
v 0.4 0.5 0.5
v 0.4 0.6 0.5
v 0.4 0.7 0.5
v 0.4 1 0.5
v 0.4 1.1 0.5
v 0.4 1.2 0.5
v 0.5 0.6 0.5
v 0.5 0.7 0.5
v 0.5 1 0.5
v 0.5 1.1 0.5
v 0.8 0.6 0.5
v 0.8 0.7 0.5
v 0.8 1 0.5
v 0.8 1.1 0.5
v 0.9 0.5 0.5
v 0.9 0.6 0.5
v 0.9 0.7 0.5
v 0.9 1 0.5
v 0.9 1.1 0.5
v 0.9 1.2 0.5
v 1 0.6 0.5
v 1 1.1 0.5
v 0.3 0.7 0.3
v 0.3 1 0.3
v 0.4 0.6 0.3
v 0.4 0.7 0.3
v 0.4 1 0.3
v 0.4 1.1 0.3
v 0.5 0.5 0.3
v 0.5 0.6 0.3
v 0.5 0.7 0.3
v 0.5 1 0.3
v 0.5 1.1 0.3
v 0.5 1.2 0.3
v 0.8 0.5 0.3
v 0.8 0.6 0.3
v 0.8 0.7 0.3
v 0.8 1 0.3
v 0.8 1.1 0.3
v 0.8 1.2 0.3
v 0.9 0.6 0.3
v 0.9 0.7 0.3
v 0.9 1 0.3
v 0.9 1.1 0.3
v 1 0.7 0.3
v 1 1 0.3
v 0.4 0.7 0.2
v 0.4 1 0.2
v 0.5 0.6 0.2
v 0.5 0.7 0.2
v 0.5 1 0.2
v 0.5 1.1 0.2
v 0.8 0.6 0.2
v 0.8 0.7 0.2
v 0.8 1 0.2
v 0.8 1.1 0.2
v 0.9 0.7 0.2
v 0.9 1 0.2
v 0.4 0.7 0
v 0.4 0.8 0
v 0.4 0.9 0
v 0.4 1 0
v 0.5 0.6 0
v 0.5 0.7 0
v 0.5 0.8 0
v 0.5 0.9 0
v 0.5 1 0
v 0.5 1.1 0
v 0.6 0.6 0
v 0.6 0.7 0
v 0.6 1 0
v 0.6 1.1 0
v 0.7 0.6 0
v 0.7 0.7 0
v 0.7 1 0
v 0.7 1.1 0
v 0.8 0.6 0
v 0.8 0.7 0
v 0.8 0.8 0
v 0.8 0.9 0
v 0.8 1 0
v 0.8 1.1 0
v 0.9 0.7 0
v 0.9 0.8 0
v 0.9 0.9 0
v 0.9 1 0
v 0.4 0.8 -0.7
v 0.4 0.9 -0.7
v 0.5 0.7 -0.7
v 0.5 0.8 -0.7
v 0.5 0.9 -0.7
v 0.5 1 -0.7
v 0.6 0.6 -0.7
v 0.6 0.7 -0.7
v 0.6 0.8 -0.7
v 0.6 0.9 -0.7
v 0.6 1 -0.7
v 0.6 1.1 -0.7
v 0.7 0.6 -0.7
v 0.7 0.7 -0.7
v 0.7 0.8 -0.7
v 0.7 0.9 -0.7
v 0.7 1 -0.7
v 0.7 1.1 -0.7
v 0.8 0.7 -0.7
v 0.8 0.8 -0.7
v 0.8 0.9 -0.7
v 0.8 1 -0.7
v 0.9 0.8 -0.7
v 0.9 0.9 -0.7
v 0.5 0.8 -0.8
v 0.5 0.9 -0.8
v 0.6 0.7 -0.8
v 0.6 0.8 -0.8
v 0.6 0.9 -0.8
v 0.6 1 -0.8
v 0.7 0.7 -0.8
v 0.7 0.8 -0.8
v 0.7 0.9 -0.8
v 0.7 1 -0.8
v 0.8 0.8 -0.8
v 0.8 0.9 -0.8
v 0.4 0.5 0.9
v 0.9 0.5 0.9
v 0.4 0.5 0.5
v 0.9 0.5 0.5
v 0.5 0.5 0.4
v 0.8 0.5 0.4
v 0.5 0.5 0.3
v 0.8 0.5 0.3
v 0.3 0.6 0.9
v 0.4 0.6 0.9
v 0.9 0.6 0.9
v 1 0.6 0.9
v 0.3 0.6 0.5
v 0.4 0.6 0.5
v 0.5 0.6 0.5
v 0.8 0.6 0.5
v 0.9 0.6 0.5
v 1 0.6 0.5
v 0.4 0.6 0.4
v 0.5 0.6 0.4
v 0.8 0.6 0.4
v 0.9 0.6 0.4
v 0.4 0.6 0.3
v 0.5 0.6 0.3
v 0.8 0.6 0.3
v 0.9 0.6 0.3
v 0.5 0.6 0.2
v 0.8 0.6 0.2
v 0.5 0.6 0.1
v 0.8 0.6 0.1
v 0.5 0.6 0
v 0.6 0.6 0
v 0.7 0.6 0
v 0.8 0.6 0
v 0.6 0.6 -0.7
v 0.7 0.6 -0.7
v 0.4 0.7 0.5
v 0.5 0.7 0.5
v 0.8 0.7 0.5
v 0.9 0.7 0.5
v 0.3 0.7 0.4
v 0.4 0.7 0.4
v 0.5 0.7 0.4
v 0.8 0.7 0.4
v 0.9 0.7 0.4
v 1 0.7 0.4
v 0.3 0.7 0.3
v 0.4 0.7 0.3
v 0.5 0.7 0.3
v 0.8 0.7 0.3
v 0.9 0.7 0.3
v 1 0.7 0.3
v 0.4 0.7 0.2
v 0.5 0.7 0.2
v 0.8 0.7 0.2
v 0.9 0.7 0.2
v 0.4 0.7 0.1
v 0.5 0.7 0.1
v 0.8 0.7 0.1
v 0.9 0.7 0.1
v 0.4 0.7 0
v 0.5 0.7 0
v 0.6 0.7 0
v 0.7 0.7 0
v 0.8 0.7 0
v 0.9 0.7 0
v 0.5 0.7 -0.7
v 0.6 0.7 -0.7
v 0.7 0.7 -0.7
v 0.8 0.7 -0.7
v 0.6 0.7 -0.8
v 0.7 0.7 -0.8
v 0.4 0.8 0
v 0.5 0.8 0
v 0.8 0.8 0
v 0.9 0.8 0
v 0.4 0.8 -0.7
v 0.5 0.8 -0.7
v 0.6 0.8 -0.7
v 0.7 0.8 -0.7
v 0.8 0.8 -0.7
v 0.9 0.8 -0.7
v 0.5 0.8 -0.8
v 0.6 0.8 -0.8
v 0.7 0.8 -0.8
v 0.8 0.8 -0.8
v 0.4 1 0.9
v 0.5 1 0.9
v 0.8 1 0.9
v 0.9 1 0.9
v 0.4 1 0.8
v 0.5 1 0.8
v 0.8 1 0.8
v 0.9 1 0.8
v 0.4 1 0.7
v 0.5 1 0.7
v 0.8 1 0.7
v 0.9 1 0.7
v 0.4 1 0.6
v 0.5 1 0.6
v 0.8 1 0.6
v 0.9 1 0.6
v 0.4 1 0.5
v 0.5 1 0.5
v 0.8 1 0.5
v 0.9 1 0.5
v 0.5 1.1 0.9
v 0.8 1.1 0.9
v 0.5 1.1 0.8
v 0.8 1.1 0.8
v 0.5 1.1 0.7
v 0.8 1.1 0.7
v 0.5 1.1 0.6
v 0.8 1.1 0.6
v 0.5 1.1 0.5
v 0.8 1.1 0.5
v 0.5 0.6 0.9
v 0.8 0.6 0.9
v 0.5 0.6 0.8
v 0.8 0.6 0.8
v 0.5 0.6 0.7
v 0.8 0.6 0.7
v 0.5 0.6 0.6
v 0.8 0.6 0.6
v 0.5 0.6 0.5
v 0.8 0.6 0.5
v 0.4 0.7 0.9
v 0.5 0.7 0.9
v 0.8 0.7 0.9
v 0.9 0.7 0.9
v 0.4 0.7 0.8
v 0.5 0.7 0.8
v 0.8 0.7 0.8
v 0.9 0.7 0.8
v 0.4 0.7 0.7
v 0.5 0.7 0.7
v 0.8 0.7 0.7
v 0.9 0.7 0.7
v 0.4 0.7 0.6
v 0.5 0.7 0.6
v 0.8 0.7 0.6
v 0.9 0.7 0.6
v 0.4 0.7 0.5
v 0.5 0.7 0.5
v 0.8 0.7 0.5
v 0.9 0.7 0.5
v 0.4 0.9 0
v 0.5 0.9 0
v 0.8 0.9 0
v 0.9 0.9 0
v 0.4 0.9 -0.7
v 0.5 0.9 -0.7
v 0.6 0.9 -0.7
v 0.7 0.9 -0.7
v 0.8 0.9 -0.7
v 0.9 0.9 -0.7
v 0.5 0.9 -0.8
v 0.6 0.9 -0.8
v 0.7 0.9 -0.8
v 0.8 0.9 -0.8
v 0.4 1 0.5
v 0.5 1 0.5
v 0.8 1 0.5
v 0.9 1 0.5
v 0.3 1 0.4
v 0.4 1 0.4
v 0.5 1 0.4
v 0.8 1 0.4
v 0.9 1 0.4
v 1 1 0.4
v 0.3 1 0.3
v 0.4 1 0.3
v 0.5 1 0.3
v 0.8 1 0.3
v 0.9 1 0.3
v 1 1 0.3
v 0.4 1 0.2
v 0.5 1 0.2
v 0.8 1 0.2
v 0.9 1 0.2
v 0.4 1 0.1
v 0.5 1 0.1
v 0.8 1 0.1
v 0.9 1 0.1
v 0.4 1 0
v 0.5 1 0
v 0.6 1 0
v 0.7 1 0
v 0.8 1 0
v 0.9 1 0
v 0.5 1 -0.7
v 0.6 1 -0.7
v 0.7 1 -0.7
v 0.8 1 -0.7
v 0.6 1 -0.8
v 0.7 1 -0.8
v 0.3 1.1 0.9
v 0.4 1.1 0.9
v 0.9 1.1 0.9
v 1 1.1 0.9
v 0.3 1.1 0.5
v 0.4 1.1 0.5
v 0.5 1.1 0.5
v 0.8 1.1 0.5
v 0.9 1.1 0.5
v 1 1.1 0.5
v 0.4 1.1 0.4
v 0.5 1.1 0.4
v 0.8 1.1 0.4
v 0.9 1.1 0.4
v 0.4 1.1 0.3
v 0.5 1.1 0.3
v 0.8 1.1 0.3
v 0.9 1.1 0.3
v 0.5 1.1 0.2
v 0.8 1.1 0.2
v 0.5 1.1 0.1
v 0.8 1.1 0.1
v 0.5 1.1 0
v 0.6 1.1 0
v 0.7 1.1 0
v 0.8 1.1 0
v 0.6 1.1 -0.7
v 0.7 1.1 -0.7
v 0.4 1.2 0.9
v 0.9 1.2 0.9
v 0.4 1.2 0.5
v 0.9 1.2 0.5
v 0.5 1.2 0.4
v 0.8 1.2 0.4
v 0.5 1.2 0.3
v 0.8 1.2 0.3

# faces
f 5/4/1 4/4/1 3/4/1
f 6/4/1 4/4/1 5/4/1
f 7/4/1 2/4/1 1/4/1
f 8/4/1 2/4/1 7/4/1
f 11/4/1 10/4/1 9/4/1
f 12/4/1 10/4/1 11/4/1
f 16/4/1 14/4/1 13/4/1
f 17/4/1 14/4/1 16/4/1
f 21/4/1 20/4/1 19/4/1
f 23/4/1 21/4/1 19/4/1
f 23/4/1 22/4/1 21/4/1
f 24/4/1 22/4/1 23/4/1
f 25/4/1 16/4/1 15/4/1
f 26/4/1 16/4/1 25/4/1
f 27/4/1 18/4/1 17/4/1
f 28/4/1 18/4/1 27/4/1
f 29/4/1 23/4/1 19/4/1
f 30/4/1 23/4/1 29/4/1
f 33/4/1 27/4/1 26/4/1
f 34/4/1 27/4/1 33/4/1
f 35/4/1 32/4/1 31/4/1
f 36/4/1 32/4/1 35/4/1
f 40/4/1 38/4/1 37/4/1
f 41/4/1 38/4/1 40/4/1
f 45/4/1 40/4/1 39/4/1
f 46/4/1 40/4/1 45/4/1
f 47/4/1 42/4/1 41/4/1
f 48/4/1 42/4/1 47/4/1
f 49/4/1 44/4/1 43/4/1
f 50/4/1 44/4/1 49/4/1
f 52/4/1 51/4/1 50/4/1
f 53/4/1 51/4/1 52/4/1
f 56/4/1 54/4/1 53/4/1
f 57/4/1 54/4/1 56/4/1
f 61/4/1 49/4/1 48/4/1
f 62/4/1 49/4/1 61/4/1
f 63/4/1 56/4/1 55/4/1
f 64/4/1 56/4/1 63/4/1
f 65/4/1 59/4/1 58/4/1
f 66/4/1 59/4/1 65/4/1
f 67/4/1 61/4/1 60/4/1
f 68/4/1 61/4/1 67/4/1
f 69/4/1 63/4/1 62/4/1
f 70/4/1 63/4/1 69/4/1
f 71/4/1 67/4/1 66/4/1
f 72/4/1 67/4/1 71/4/1
f 75/4/1 74/4/1 73/4/1
f 76/4/1 74/4/1 75/4/1
f 78/4/1 77/4/1 76/4/1
f 79/4/1 77/4/1 78/4/1
f 83/4/1 81/4/1 80/4/1
f 84/4/1 81/4/1 83/4/1
f 85/4/1 83/4/1 82/4/1
f 86/4/1 83/4/1 85/4/1
f 92/4/1 88/4/1 87/4/1
f 93/4/1 88/4/1 92/4/1
f 94/3/1 90/3/1 89/3/1
f 95/4/1 91/4/1 90/4/1
f 95/3/1 90/3/1 94/3/1
f 96/4/1 91/4/1 95/4/1
f 102/4/1 98/4/1 97/4/1
f 103/4/1 98/4/1 102/4/1
f 104/3/1 100/3/1 99/3/1
f 105/4/1 101/4/1 100/4/1
f 105/3/1 100/3/1 104/3/1
f 106/4/1 101/4/1 105/4/1
f 112/4/1 108/4/1 107/4/1
f 113/4/1 108/4/1 112/4/1
f 114/4/1 111/4/1 110/4/1
f 114/4/1 110/4/1 109/4/1
f 115/4/1 111/4/1 114/4/1
f 116/4/1 111/4/1 115/4/1
f 117/4/2 118/4/2 122/4/2
f 122/4/2 118/4/2 123/4/2
f 120/4/2 121/4/2 124/4/2
f 119/4/2 120/4/2 124/4/2
f 124/4/2 121/4/2 125/4/2
f 125/4/2 121/4/2 126/4/2
f 127/4/2 128/4/2 132/4/2
f 132/4/2 128/4/2 133/4/2
f 129/3/2 130/3/2 134/3/2
f 130/4/2 131/4/2 135/4/2
f 134/3/2 130/3/2 135/3/2
f 135/4/2 131/4/2 136/4/2
f 137/4/2 138/4/2 142/4/2
f 142/4/2 138/4/2 143/4/2
f 139/3/2 140/3/2 144/3/2
f 140/4/2 141/4/2 145/4/2
f 144/3/2 140/3/2 145/3/2
f 145/4/2 141/4/2 146/4/2
f 147/4/2 148/4/2 149/4/2
f 149/4/2 148/4/2 150/4/2
f 150/4/2 151/4/2 152/4/2
f 152/4/2 151/4/2 153/4/2
f 154/4/2 155/4/2 157/4/2
f 157/4/2 155/4/2 158/4/2
f 156/4/2 157/4/2 159/4/2
f 159/4/2 157/4/2 160/4/2
f 161/4/2 162/4/2 164/4/2
f 164/4/2 162/4/2 165/4/2
f 163/4/2 164/4/2 169/4/2
f 169/4/2 164/4/2 170/4/2
f 165/4/2 166/4/2 171/4/2
f 171/4/2 166/4/2 172/4/2
f 167/4/2 168/4/2 173/4/2
f 173/4/2 168/4/2 174/4/2
f 174/4/2 175/4/2 176/4/2
f 176/4/2 175/4/2 177/4/2
f 177/4/2 178/4/2 180/4/2
f 180/4/2 178/4/2 181/4/2
f 172/4/2 173/4/2 185/4/2
f 185/4/2 173/4/2 186/4/2
f 179/4/2 180/4/2 187/4/2
f 187/4/2 180/4/2 188/4/2
f 182/4/2 183/4/2 189/4/2
f 189/4/2 183/4/2 190/4/2
f 184/4/2 185/4/2 191/4/2
f 191/4/2 185/4/2 192/4/2
f 186/4/2 187/4/2 193/4/2
f 193/4/2 187/4/2 194/4/2
f 190/4/2 191/4/2 195/4/2
f 195/4/2 191/4/2 196/4/2
f 197/4/2 198/4/2 199/4/2
f 199/4/2 198/4/2 200/4/2
f 201/4/2 202/4/2 204/4/2
f 204/4/2 202/4/2 205/4/2
f 207/4/2 208/4/2 209/4/2
f 207/4/2 209/4/2 211/4/2
f 209/4/2 210/4/2 211/4/2
f 211/4/2 210/4/2 212/4/2
f 203/4/2 204/4/2 213/4/2
f 213/4/2 204/4/2 214/4/2
f 205/4/2 206/4/2 215/4/2
f 215/4/2 206/4/2 216/4/2
f 207/4/2 211/4/2 217/4/2
f 217/4/2 211/4/2 218/4/2
f 214/4/2 215/4/2 221/4/2
f 221/4/2 215/4/2 222/4/2
f 219/4/2 220/4/2 223/4/2
f 223/4/2 220/4/2 224/4/2
f 227/4/2 228/4/2 229/4/2
f 229/4/2 228/4/2 230/4/2
f 225/4/2 226/4/2 231/4/2
f 231/4/2 226/4/2 232/4/2
f 236/4/3 234/4/3 233/4/3
f 237/4/3 234/4/3 236/4/3
f 238/4/3 234/4/3 237/4/3
f 239/4/3 234/4/3 238/4/3
f 241/4/3 236/4/3 235/4/3
f 241/4/3 237/4/3 236/4/3
f 242/4/3 237/4/3 241/4/3
f 243/4/3 240/4/3 239/4/3
f 243/4/3 239/4/3 238/4/3
f 244/4/3 240/4/3 243/4/3
f 245/4/3 241/4/3 235/4/3
f 248/4/3 240/4/3 244/4/3
f 249/4/3 246/4/3 245/4/3
f 249/4/3 245/4/3 235/4/3
f 250/4/3 246/4/3 249/4/3
f 251/4/3 246/4/3 250/4/3
f 252/4/3 248/4/3 247/4/3
f 253/4/3 240/4/3 248/4/3
f 253/4/3 248/4/3 252/4/3
f 254/4/3 240/4/3 253/4/3
f 255/4/3 251/4/3 250/4/3
f 255/4/3 252/4/3 251/4/3
f 255/4/3 253/4/3 252/4/3
f 256/4/3 253/4/3 255/4/3
f 260/1/3 258/1/3 257/1/3
f 261/1/3 258/1/3 260/1/3
f 263/1/3 260/1/3 259/1/3
f 264/2/3 261/2/3 260/2/3
f 264/1/3 260/1/3 263/1/3
f 265/1/3 262/1/3 261/1/3
f 265/2/3 261/2/3 264/2/3
f 266/1/3 262/1/3 265/1/3
f 267/1/3 265/1/3 264/1/3
f 268/1/3 265/1/3 267/1/3
f 272/4/3 270/4/3 269/4/3
f 273/4/3 270/4/3 272/4/3
f 275/4/3 272/4/3 271/4/3
f 276/3/3 273/3/3 272/3/3
f 276/4/3 272/4/3 275/4/3
f 277/4/3 274/4/3 273/4/3
f 277/3/3 273/3/3 276/3/3
f 278/4/3 274/4/3 277/4/3
f 279/4/3 277/4/3 276/4/3
f 280/4/3 277/4/3 279/4/3
f 284/4/3 282/4/3 281/4/3
f 285/4/3 282/4/3 284/4/3
f 288/4/3 284/4/3 283/4/3
f 289/4/3 284/4/3 288/4/3
f 290/4/3 286/4/3 285/4/3
f 291/4/3 286/4/3 290/4/3
f 293/4/3 288/4/3 287/4/3
f 294/4/3 288/4/3 293/4/3
f 297/4/3 292/4/3 291/4/3
f 298/4/3 292/4/3 297/4/3
f 299/4/3 295/4/3 294/4/3
f 300/4/3 295/4/3 299/4/3
f 301/4/3 297/4/3 296/4/3
f 302/4/3 297/4/3 301/4/3
f 303/4/3 301/4/3 300/4/3
f 304/4/3 301/4/3 303/4/3
f 308/4/3 306/4/3 305/4/3
f 309/4/3 306/4/3 308/4/3
f 311/4/3 308/4/3 307/4/3
f 312/4/3 308/4/3 311/4/3
f 313/4/3 310/4/3 309/4/3
f 314/4/3 310/4/3 313/4/3
f 315/4/3 313/4/3 312/4/3
f 316/4/3 313/4/3 315/4/3
f 317/1/4 318/1/4 320/1/4
f 320/1/4 318/1/4 321/1/4
f 319/1/4 320/1/4 323/1/4
f 320/2/4 321/2/4 324/2/4
f 323/1/4 320/1/4 324/1/4
f 321/1/4 322/1/4 325/1/4
f 324/2/4 321/2/4 325/2/4
f 325/1/4 322/1/4 326/1/4
f 324/1/4 325/1/4 327/1/4
f 327/1/4 325/1/4 328/1/4
f 329/4/4 330/4/4 332/4/4
f 332/4/4 330/4/4 333/4/4
f 333/4/4 330/4/4 334/4/4
f 334/4/4 330/4/4 335/4/4
f 331/4/4 332/4/4 337/4/4
f 332/4/4 333/4/4 337/4/4
f 337/4/4 333/4/4 338/4/4
f 335/4/4 336/4/4 339/4/4
f 334/4/4 335/4/4 339/4/4
f 339/4/4 336/4/4 340/4/4
f 331/4/4 337/4/4 341/4/4
f 340/4/4 336/4/4 344/4/4
f 341/4/4 342/4/4 345/4/4
f 331/4/4 341/4/4 345/4/4
f 345/4/4 342/4/4 346/4/4
f 346/4/4 342/4/4 347/4/4
f 343/4/4 344/4/4 348/4/4
f 344/4/4 336/4/4 349/4/4
f 348/4/4 344/4/4 349/4/4
f 349/4/4 336/4/4 350/4/4
f 346/4/4 347/4/4 351/4/4
f 347/4/4 348/4/4 351/4/4
f 348/4/4 349/4/4 351/4/4
f 351/4/4 349/4/4 352/4/4
f 353/4/4 354/4/4 356/4/4
f 356/4/4 354/4/4 357/4/4
f 355/4/4 356/4/4 360/4/4
f 360/4/4 356/4/4 361/4/4
f 357/4/4 358/4/4 362/4/4
f 362/4/4 358/4/4 363/4/4
f 359/4/4 360/4/4 365/4/4
f 365/4/4 360/4/4 366/4/4
f 363/4/4 364/4/4 369/4/4
f 369/4/4 364/4/4 370/4/4
f 366/4/4 367/4/4 371/4/4
f 371/4/4 367/4/4 372/4/4
f 368/4/4 369/4/4 373/4/4
f 373/4/4 369/4/4 374/4/4
f 372/4/4 373/4/4 375/4/4
f 375/4/4 373/4/4 376/4/4
f 377/4/4 378/4/4 380/4/4
f 380/4/4 378/4/4 381/4/4
f 379/4/4 380/4/4 383/4/4
f 383/4/4 380/4/4 384/4/4
f 381/4/4 382/4/4 385/4/4
f 385/4/4 382/4/4 386/4/4
f 384/4/4 385/4/4 387/4/4
f 387/4/4 385/4/4 388/4/4
f 389/4/4 390/4/4 394/4/4
f 394/4/4 390/4/4 395/4/4
f 391/4/4 392/4/4 396/4/4
f 396/4/4 392/4/4 397/4/4
f 393/4/4 394/4/4 399/4/4
f 399/4/4 394/4/4 400/4/4
f 397/4/4 398/4/4 401/4/4
f 401/4/4 398/4/4 402/4/4
f 403/4/4 404/4/4 407/4/4
f 407/4/4 404/4/4 408/4/4
f 405/4/4 406/4/4 411/4/4
f 411/4/4 406/4/4 412/4/4
f 408/4/4 409/4/4 413/4/4
f 413/4/4 409/4/4 414/4/4
f 410/4/4 411/4/4 415/4/4
f 415/4/4 411/4/4 416/4/4
f 417/4/4 418/4/4 420/4/4
f 420/4/4 418/4/4 421/4/4
f 419/4/4 420/4/4 424/4/4
f 424/4/4 420/4/4 425/4/4
f 421/4/4 422/4/4 426/4/4
f 426/4/4 422/4/4 427/4/4
f 423/4/4 424/4/4 429/4/4
f 429/4/4 424/4/4 430/4/4
f 427/4/4 428/4/4 433/4/4
f 433/4/4 428/4/4 434/4/4
f 430/4/4 431/4/4 435/4/4
f 435/4/4 431/4/4 436/4/4
f 432/4/4 433/4/4 437/4/4
f 437/4/4 433/4/4 438/4/4
f 436/4/4 437/4/4 439/4/4
f 439/4/4 437/4/4 440/4/4
f 441/4/4 442/4/4 444/4/4
f 444/4/4 442/4/4 445/4/4
f 443/4/4 444/4/4 447/4/4
f 445/4/4 446/4/4 447/4/4
f 444/4/4 445/4/4 447/4/4
f 447/4/4 446/4/4 448/4/4
f 448/4/4 446/4/4 449/4/4
f 449/4/4 446/4/4 450/4/4
f 448/4/4 449/4/4 451/4/4
f 451/4/4 449/4/4 452/4/4
f 455/4/5 454/4/5 453/4/5
f 456/4/5 454/4/5 455/4/5
f 459/4/5 458/4/5 457/4/5
f 460/4/5 458/4/5 459/4/5
f 465/4/5 462/4/5 461/4/5
f 466/4/5 462/4/5 465/4/5
f 469/4/5 464/4/5 463/4/5
f 470/4/5 464/4/5 469/4/5
f 472/4/5 468/4/5 467/4/5
f 473/4/5 468/4/5 472/4/5
f 475/4/5 472/4/5 471/4/5
f 476/4/5 472/4/5 475/4/5
f 477/4/5 474/4/5 473/4/5
f 478/4/5 474/4/5 477/4/5
f 479/4/5 477/4/5 476/4/5
f 480/4/5 477/4/5 479/4/5
f 483/4/5 482/4/5 481/4/5
f 484/4/5 482/4/5 483/4/5
f 485/4/5 482/4/5 484/4/5
f 486/4/5 482/4/5 485/4/5
f 487/4/5 485/4/5 484/4/5
f 488/4/5 485/4/5 487/4/5
f 494/4/5 490/4/5 489/4/5
f 495/4/5 490/4/5 494/4/5
f 496/4/5 492/4/5 491/4/5
f 497/4/5 492/4/5 496/4/5
f 499/4/5 494/4/5 493/4/5
f 500/4/5 494/4/5 499/4/5
f 503/4/5 498/4/5 497/4/5
f 504/4/5 498/4/5 503/4/5
f 505/4/5 501/4/5 500/4/5
f 506/4/5 501/4/5 505/4/5
f 507/4/5 503/4/5 502/4/5
f 508/4/5 503/4/5 507/4/5
f 510/4/5 507/4/5 506/4/5
f 511/4/5 507/4/5 510/4/5
f 513/4/5 510/4/5 509/4/5
f 514/4/5 510/4/5 513/4/5
f 517/4/5 512/4/5 511/4/5
f 518/4/5 512/4/5 517/4/5
f 519/4/5 515/4/5 514/4/5
f 520/4/5 515/4/5 519/4/5
f 521/4/5 517/4/5 516/4/5
f 522/4/5 517/4/5 521/4/5
f 523/4/5 521/4/5 520/4/5
f 524/4/5 521/4/5 523/4/5
f 529/4/5 526/4/5 525/4/5
f 530/4/5 526/4/5 529/4/5
f 533/4/5 528/4/5 527/4/5
f 534/4/5 528/4/5 533/4/5
f 535/4/5 531/4/5 530/4/5
f 536/4/5 531/4/5 535/4/5
f 537/4/5 533/4/5 532/4/5
f 538/4/5 533/4/5 537/4/5
f 543/4/5 540/4/5 539/4/5
f 544/4/5 540/4/5 543/4/5
f 545/4/5 542/4/5 541/4/5
f 546/4/5 542/4/5 545/4/5
f 551/3/5 548/3/5 547/3/5
f 552/3/5 548/3/5 551/3/5
f 553/3/5 550/3/5 549/3/5
f 554/3/5 550/3/5 553/3/5
f 555/4/5 552/4/5 551/4/5
f 556/4/5 552/4/5 555/4/5
f 557/4/5 554/4/5 553/4/5
f 558/4/5 554/4/5 557/4/5
f 561/4/5 560/4/5 559/4/5
f 562/4/5 560/4/5 561/4/5
f 565/4/5 564/4/5 563/4/5
f 566/4/5 564/4/5 565/4/5
f 567/4/5 566/4/5 565/4/5
f 568/4/5 566/4/5 567/4/5
f 569/4/6 570/4/6 571/4/6
f 571/4/6 570/4/6 572/4/6
f 573/4/6 574/4/6 575/4/6
f 575/4/6 574/4/6 576/4/6
f 575/4/6 576/4/6 577/4/6
f 577/4/6 576/4/6 578/4/6
f 579/4/6 580/4/6 583/4/6
f 583/4/6 580/4/6 584/4/6
f 581/4/6 582/4/6 585/4/6
f 585/4/6 582/4/6 586/4/6
f 587/3/6 588/3/6 591/3/6
f 591/3/6 588/3/6 592/3/6
f 589/3/6 590/3/6 593/3/6
f 593/3/6 590/3/6 594/3/6
f 591/4/6 592/4/6 595/4/6
f 595/4/6 592/4/6 596/4/6
f 593/4/6 594/4/6 597/4/6
f 597/4/6 594/4/6 598/4/6
f 599/4/6 600/4/6 603/4/6
f 603/4/6 600/4/6 604/4/6
f 601/4/6 602/4/6 607/4/6
f 607/4/6 602/4/6 608/4/6
f 604/4/6 605/4/6 609/4/6
f 609/4/6 605/4/6 610/4/6
f 606/4/6 607/4/6 611/4/6
f 611/4/6 607/4/6 612/4/6
f 613/4/6 614/4/6 618/4/6
f 618/4/6 614/4/6 619/4/6
f 615/4/6 616/4/6 620/4/6
f 620/4/6 616/4/6 621/4/6
f 617/4/6 618/4/6 623/4/6
f 623/4/6 618/4/6 624/4/6
f 621/4/6 622/4/6 627/4/6
f 627/4/6 622/4/6 628/4/6
f 624/4/6 625/4/6 629/4/6
f 629/4/6 625/4/6 630/4/6
f 626/4/6 627/4/6 631/4/6
f 631/4/6 627/4/6 632/4/6
f 630/4/6 631/4/6 634/4/6
f 634/4/6 631/4/6 635/4/6
f 633/4/6 634/4/6 637/4/6
f 637/4/6 634/4/6 638/4/6
f 635/4/6 636/4/6 641/4/6
f 641/4/6 636/4/6 642/4/6
f 638/4/6 639/4/6 643/4/6
f 643/4/6 639/4/6 644/4/6
f 640/4/6 641/4/6 645/4/6
f 645/4/6 641/4/6 646/4/6
f 644/4/6 645/4/6 647/4/6
f 647/4/6 645/4/6 648/4/6
f 649/4/6 650/4/6 653/4/6
f 653/4/6 650/4/6 654/4/6
f 651/4/6 652/4/6 657/4/6
f 657/4/6 652/4/6 658/4/6
f 655/4/6 656/4/6 660/4/6
f 660/4/6 656/4/6 661/4/6
f 659/4/6 660/4/6 663/4/6
f 663/4/6 660/4/6 664/4/6
f 661/4/6 662/4/6 665/4/6
f 665/4/6 662/4/6 666/4/6
f 664/4/6 665/4/6 667/4/6
f 667/4/6 665/4/6 668/4/6
f 669/4/6 670/4/6 671/4/6
f 671/4/6 670/4/6 672/4/6
f 672/4/6 670/4/6 673/4/6
f 673/4/6 670/4/6 674/4/6
f 672/4/6 673/4/6 675/4/6
f 675/4/6 673/4/6 676/4/6
f 677/4/6 678/4/6 679/4/6
f 679/4/6 678/4/6 680/4/6
f 681/4/6 682/4/6 683/4/6
f 683/4/6 682/4/6 684/4/6
